<svg xmlns="http://www.w3.org/2000/svg" viewBox="183.606 191.091 637.3 621"><path d="M417.482 696.552c11.63-25.346 21.345-51.02 29.481-77.296.345-1.113.804-2.203 1.031-3.339.727-3.641 2.659-4.22 6.134-3.266 11.052 3.033 21.977 6.504 33.394 8.211 28.363 4.24 56.057 1.305 83.353-6.898 7.183-2.159 14.298-4.524 21.04-7.833 4.822-2.367 5.002-4.301.64-7.437-8.683-6.242-18.87-8.092-29.152-9.319-16.898-2.017-33.864-1.537-50.845-1.328-10.457.129-20.94-.978-31.394-1.766-17.572-1.325-35.241-1.78-52.557-5.544-8.071-1.755-9.067-3.551-6.261-12.232l20.401 3.316c14.819 2.39 29.845 2.378 44.744 3.835 18.616 1.82 37.292.65 55.936 1.086 11.984.28 23.918 1.397 35.661 3.978 9.297 2.043 17.602 5.994 24.472 12.756 3.563 3.507 5.171 3.214 6.679-1.368 1.61-4.893 3.159-9.849 4.157-14.892 1.764-8.918-3.765-17.423-13.898-21.769-9.735-4.175-20.08-5.962-30.518-7.079-25.022-2.678-50.202-2.676-75.29-4.216-38.019-2.333-75.494-7.604-110.753-23.221-2.132-.944-3.975-.901-6.201-.212-19.297 5.973-39.149 9.148-59.147 11.631-35.068 4.355-70.304 5.923-105.596 6.6-3.493.067-5.906 1.355-7.919 4.22-3.475 4.946-7.262 9.672-11.509 15.27-1.795-6.203.229-11.037.336-15.902.143-6.46 1.234-12.895 1.808-19.351.193-2.179 1.074-3.804 2.877-4.967.56-.361 1.204-.614 1.704-1.041 12.004-10.24 26.113-13.052 41.572-13.531 35.273-1.093 70.514-3.193 105.768-4.897l17.452-.948c.665-.037 1.353-.011 1.986-.181 1.95-.523 4.176-9.423 3.496-13.572-.649-3.956-3.499-4.007-6.448-3.587-25.842 3.681-51.833 3.273-77.799 2.533-25.121-.716-50.197-2.528-75.214-4.936-6.038-.581-10.923 2.46-16.359 3.727-3.672.856-7.062 2.82-10.939 3.053-.73-1.888.723-2.496 1.593-3.342l37.708-36.496c2.441-2.323 3.842-4.862 4.465-8.058 5.734-29.42 15.155-57.561 29.304-84.047 12.235-22.903 28.847-42.309 47.811-59.847 47.589-44.011 103.613-72.717 165.429-90.658 22.893-6.644 46.425-9.732 70.294-10.912 34.025-1.682 67.392 2.178 100.427 9.913 1.201.281 2.756-.051 3.494 1.456-.081.318-.064.802-.249.899-38.299 20.094-61.885 51.462-71.87 93.381-1.44 6.044-1.982 12.13-2.34 18.264-.218 3.734-1.854 5.033-5.661 4.996-26.21-.256-51.844 3.833-76.367 12.902-37.091 13.717-71.208 32.578-98.311 62.176-13.245 14.464-22.677 31.136-27.489 50.35-1.5 5.988.035 11.216 2.285 16.417 1.403 3.244 3.554 3.17 5.262-.031 2.351-4.404 4.326-9.014 6.77-13.362 15.562-27.68 38.409-47.842 65.664-63.454 26.644-15.261 55.267-24.586 85.664-28.447 14.079-1.788 28.259-1.48 42.418-1.044 4.024.124 7.228 1.304 9.311 5.293 1.336 2.559 3.78 4.54 5.766 6.825-1.423 2.141-3.396 1.183-5.031 1.036-32.529-2.914-64.531-1.081-95.459 10.476-2.394.895-6.267.915-6.433 3.854-.189 3.338 3.777 3.654 6.263 4.644 9.229 3.673 19.034 4.783 28.797 5.533 23.425 1.799 46.936 1.291 70.401 2.127 34.35 1.224 68.393 4.346 101.136 15.878 43.847 15.443 74.765 44.156 91.87 87.774 10.28 26.215 16.126 53.092 15.562 81.266-.926 46.268-15.617 87.957-43.161 124.898-41.249 55.32-97.677 86.134-164.33 99.833-25.867 5.316-52.055 7.257-78.429 6.599-45.217-1.129-89.485-7.441-131.7-24.651-1.04-.424-2.036-.958-3.774-1.784 2.705-1.315 4.843-.997 6.763-.422 3.689 1.104 5.446.18 6.285-3.815 1.321-6.292 1.592-6.232 7.562-4.086 27.414 9.853 55.736 15.246 84.722 17.676 22.614 1.895 45.234 2.711 67.844.742 73.032-6.358 136.547-32.652 185.109-89.562 12.496-14.645 22.547-30.951 30.4-48.565.714-1.601 1.267-3.273 1.553-5.12-12.745 17.149-27.598 32.058-44.651 44.79-30.132 22.496-63.87 37.705-99.501 48.96-35.046 11.071-70.846 17.973-107.694 19.426-37.91 1.496-74.737-2.773-109.747-18.284-7.956-3.525-8.496-4.862-3.658-11.996 8.259-12.178 15.122-25.104 21.603-38.688zm221.763-335.66c-3.157-1.933-5.882-3.893-8.836-5.405-11.709-5.992-13.724-16.385-12.449-27.945 2.518-22.82 10.295-43.621 24.809-61.662 5.841-7.26 11.554-14.573 18.257-21.158 6.066-5.959 12.439-6.827 20.017-4.387 10.442 3.361 20.758 7.106 31.551 9.352 25.026 5.209 48.577.862 71.216-10.307 9.855-4.862 19.679-9.816 29.941-13.795 1.801-.698 3.561-1.911 5.933-1.101 1.938 9.49 1.386 19.089.163 28.623-3.954 30.816-17.219 57.281-38.965 79.216-27.134 27.369-59.679 42.618-98.909 40.863-14.982-.67-29.101-5.161-42.729-12.293m138.269-95.646c-26.683 11.343-53.832 8.471-81.564 1.143 5.49 17.043 28.475 28.27 51.203 26.282 16.154-1.413 34.789-16.197 36.378-29.156l-6.018 1.731zM368.735 617.712l34.11-25.863c5.367-4.239 10.401-2.168 16.311-.982-4.109 9.767-10.104 17.521-16.24 25.103-19.126 23.633-41.14 44.443-63.983 64.382-12.912 11.27-26.183 22.132-39.363 33.094-2.413 2.007-3.945 4.297-4.741 7.355-1.784 6.854-3.838 13.637-6.364 20.495-6.843-12.389-8.942-26.784-18.4-37.514 1.987-1.721 2.782.892 4.747-.31l11.963-31.007c.791-2.072 1.684-3.806 3.84-4.914 27.481-14.127 52.748-31.735 78.12-49.839zm21.645-67.161c3.74 3.01 1.797 4.519-1.024 5.898-11.422 5.581-23.511 9.336-35.668 12.839-40.643 11.71-82.038 20.169-123.602 27.737-7.537 1.372-12.589 3.856-15.137 11.198-.934 2.692-2.127 5.541-4.421 7.512-1.649-1.022-1.569-2.445-1.631-3.738l-1.158-24.946c-.188-3.132.715-5.533 3.252-7.337.135-.096.255-.215.377-.328 18.126-16.7 18.177-16.371 47.059-20.803l85.559-14.337 31.469-5.305c2.597-.456 4.456.272 6.165 2.226 2.74 3.132 5.665 6.103 8.76 9.385zm.303 98.158l32.092-45.644c2.849-4.051 6.2-4.547 13.903-2.002.903 2.095-.505 3.805-1.212 5.555-11.156 27.586-26.123 53.154-41.778 78.335-13.452 21.637-27.476 42.903-42.575 63.437-1.391 1.892-1.665 3.836-1.821 6.038-.608 8.602-.805 17.249-2.438 27.141-10.511-9.909-18.286-21.421-31.002-27.953 2.627-1.937 4.162.049 6.438-.946l7.338-26.245c.667-2.407 1.238-4.797 3.122-6.67 21.702-21.575 39.409-46.414 57.933-71.046zm-31.466-66.603c8.82-3.179 17.532-5.654 25.669-9.384 8.522-3.906 14.584.012 21.114 4.19-.979 3.065-3.492 3.949-5.48 5.257-24.002 15.79-49.826 28.144-75.892 40.02-23.02 10.488-46.311 20.35-69.965 29.323-3.447 1.308-5.386 3.326-6.391 6.869-1.796 6.334-3.989 12.556-6.016 18.825l-1.387.003-4.671-14.406c-4.556-14.269-3.952-13.895 3.995-26.552 7.238-11.528 16.47-18.545 29.662-22.751 29.944-9.546 59.367-20.726 89.362-31.395z" fill="#FFF"/></svg>
